<svg width="54" height="53" viewBox="0 0 54 53" fill="none" xmlns="http://www.w3.org/2000/svg">
<path fill-rule="evenodd" clip-rule="evenodd" d="M11.6079 24.8601C11.1685 25.228 10.5083 25.1754 10.1341 24.7436C9.51575 24.0284 8.39531 24.0284 7.77698 24.7436C7.40272 25.1754 6.74255 25.228 6.3032 24.8601C5.86386 24.4922 5.8104 23.8433 6.18465 23.4114C7.6375 21.7298 10.2782 21.7298 11.7311 23.4114C12.1053 23.8433 12.0518 24.4922 11.6125 24.8601H11.6079Z" fill="#1630F2"/>
<path fill-rule="evenodd" clip-rule="evenodd" d="M16.0617 36.3806C15.3086 36.5497 14.5252 36.6434 13.7209 36.6434C7.94434 36.6434 3.26035 32.0393 3.26035 26.3613C3.26035 20.6833 7.94434 16.0792 13.7209 16.0792C14.5252 16.0792 15.3086 16.1706 16.0617 16.3419C16.6731 15.6839 17.3472 15.0829 18.0678 14.5414C16.7103 14.0593 15.2458 13.7943 13.7209 13.7943C6.65886 13.7943 0.935791 19.4197 0.935791 26.3613C0.935791 33.3028 6.65886 38.9283 13.7209 38.9283C15.2481 38.9283 16.7126 38.6632 18.0678 38.1811C17.3449 37.6396 16.6731 37.0386 16.0617 36.3806Z" fill="#1630F2"/>
<path fill-rule="evenodd" clip-rule="evenodd" d="M12.7794 30.7849C11.2754 30.6089 9.81324 30.0171 8.58355 29.0003C8.14188 28.6348 7.4817 28.6919 7.10977 29.126C6.73784 29.5601 6.79596 30.2091 7.23762 30.5746C9.0903 32.1032 11.3614 32.8755 13.6395 32.8938C13.3001 32.2175 13.0118 31.5137 12.7794 30.7826V30.7849Z" fill="#1630F2"/>
<path fill-rule="evenodd" clip-rule="evenodd" d="M25.0903 24.8601C24.6509 25.228 23.9908 25.1754 23.6165 24.7436C22.9982 24.0284 21.8777 24.0284 21.2594 24.7436C20.8851 25.1754 20.225 25.228 19.7856 24.8601C19.3463 24.4922 19.2928 23.8433 19.6671 23.4114C21.1199 21.7298 23.7606 21.7298 25.2135 23.4114C25.5877 23.8433 25.5343 24.4922 25.0949 24.8601H25.0903Z" fill="#1630F2"/>
<path fill-rule="evenodd" clip-rule="evenodd" d="M26.7408 30.826C25.0717 30.73 23.426 30.1245 22.0661 29.0003C21.6244 28.6348 20.9642 28.6919 20.5923 29.126C20.2204 29.5601 20.2785 30.2091 20.7202 30.5746C22.6984 32.2084 25.1531 32.9784 27.5846 32.8893C27.2545 32.2266 26.9709 31.5389 26.7408 30.826Z" fill="#1630F2"/>
<path d="M29.923 36.2892C29.056 36.52 28.1424 36.6434 27.2033 36.6434C21.4361 36.6434 16.7428 32.0301 16.7428 26.3613C16.7428 20.6924 21.4361 16.0792 27.2033 16.0792C28.1447 16.0792 29.056 16.2048 29.923 16.4333C30.5135 15.789 31.1644 15.1972 31.8594 14.6602C30.4158 14.1027 28.8444 13.7943 27.2033 13.7943C20.1529 13.7943 14.4182 19.4311 14.4182 26.3613C14.4182 33.2914 20.1529 38.9283 27.2033 38.9283C28.8468 38.9283 30.4158 38.6198 31.8594 38.0623C31.162 37.5276 30.5135 36.9358 29.923 36.2892Z" fill="#1630F2"/>
<path d="M41.1507 13.7943C34.1003 13.7943 28.3656 19.4311 28.3656 26.3613C28.3656 33.2914 34.1003 38.9283 41.1507 38.9283C48.2011 38.9283 53.9358 33.2914 53.9358 26.3613C53.9358 19.4311 48.2011 13.7943 41.1507 13.7943ZM41.1507 36.6434C35.3835 36.6434 30.6902 32.0301 30.6902 26.3613C30.6902 20.6924 35.3835 16.0792 41.1507 16.0792C46.9179 16.0792 51.6112 20.6924 51.6112 26.3613C51.6112 32.0301 46.9179 36.6434 41.1507 36.6434Z" fill="#1630F2"/>
<path fill-rule="evenodd" clip-rule="evenodd" d="M34.5373 29.1283C34.9092 28.6942 35.5694 28.637 36.011 29.0026C38.9818 31.4566 43.3171 31.4566 46.2879 29.0026C46.7296 28.637 47.3898 28.6942 47.7617 29.1283C48.1336 29.5624 48.0755 30.2113 47.6338 30.5769C43.8843 33.673 38.4146 33.673 34.6651 30.5769C34.2234 30.2113 34.1653 29.5624 34.5373 29.1283Z" fill="#1630F2"/>
<path fill-rule="evenodd" clip-rule="evenodd" d="M48.3359 24.8601C47.8965 25.228 47.2364 25.1754 46.8621 24.7436C46.2438 24.0284 45.1233 24.0284 44.505 24.7436C44.1307 25.1754 43.4706 25.228 43.0312 24.8601C42.5919 24.4922 42.5384 23.8433 42.9127 23.4114C44.3655 21.7298 47.0062 21.7298 48.4591 23.4114C48.8333 23.8433 48.7799 24.4922 48.3405 24.8601H48.3359Z" fill="#1630F2"/>
<path fill-rule="evenodd" clip-rule="evenodd" d="M39.0377 24.8601C38.5983 25.228 37.9381 25.1754 37.5639 24.7436C36.9456 24.0284 35.8251 24.0284 35.2068 24.7436C34.8325 25.1754 34.1724 25.228 33.733 24.8601C33.2937 24.4922 33.2402 23.8433 33.6145 23.4114C35.0673 21.7298 37.708 21.7298 39.1609 23.4114C39.5351 23.8433 39.4816 24.4922 39.0423 24.8601H39.0377Z" fill="#1630F2"/>
</svg>
